<?xml version="1.0" encoding="UTF-8"?>
<!DOCTYPE svg PUBLIC "-//W3C//DTD SVG 1.1//EN" "http://www.w3.org/Graphics/SVG/1.1/DTD/svg11.dtd">
<svg xmlns="http://www.w3.org/2000/svg" version="1.1" width="1000px" height="1000px" style="shape-rendering:geometricPrecision; text-rendering:geometricPrecision; image-rendering:optimizeQuality; fill-rule:evenodd; clip-rule:evenodd" xmlns:xlink="http://www.w3.org/1999/xlink">
<g><path style="opacity:1" fill="#fff" d="M 305.5,113.5 C 306.29,114.401 307.29,115.068 308.5,115.5C 321.842,121.513 333.842,129.513 344.5,139.5C 344.81,142.713 344.477,145.713 343.5,148.5C 342.833,147.167 341.833,146.167 340.5,145.5C 295.855,106.723 245.521,97.2228 189.5,117C 151.246,133.421 124.246,160.921 108.5,199.5C 107.463,200.93 106.796,202.597 106.5,204.5C 106.5,204.833 106.5,205.167 106.5,205.5C 105.262,207.214 104.595,209.214 104.5,211.5C 91.7474,269.019 106.747,317.852 149.5,358C 194.719,393.702 244.386,401.369 298.5,381C 313.047,374.237 326.381,365.737 338.5,355.5C 340.716,354.797 342.549,353.464 344,351.5C 344.497,354.146 344.664,356.813 344.5,359.5C 323.437,379.531 298.437,391.864 269.5,396.5C 267.901,396.232 266.568,396.566 265.5,397.5C 264.833,397.5 264.167,397.5 263.5,397.5C 260.941,397.198 258.607,397.532 256.5,398.5C 196.931,401.964 150.097,379.298 116,330.5C 106.267,315.471 99.767,299.137 96.5,281.5C 96.7678,279.901 96.4345,278.568 95.5,277.5C 94.612,274.946 94.2786,272.279 94.5,269.5C 94.7845,267.585 94.4511,265.919 93.5,264.5C 90.0704,198.684 116.57,149.018 173,115.5C 177.583,114.719 181.917,112.719 186,109.5C 186.333,109.833 186.667,110.167 187,110.5C 226.984,95.1588 266.484,96.1588 305.5,113.5 Z"/></g>
<g><path style="opacity:0.998" fill="#fff" d="M 328.5,143.5 C 329.911,145.914 331.911,147.581 334.5,148.5C 338.131,151.629 341.631,154.963 345,158.5C 345.808,160.579 345.641,162.579 344.5,164.5C 343.702,164.043 343.369,163.376 343.5,162.5C 342.5,160.833 341.167,159.5 339.5,158.5C 301.58,120.933 256.58,108.766 204.5,122C 153.055,139.774 121.888,175.274 111,228.5C 105.032,282.645 123.532,326.145 166.5,359C 212.123,387.703 259.123,390.036 307.5,366C 321.806,357.697 334.306,347.197 345,334.5C 345.857,337.551 345.19,340.217 343,342.5C 302.094,382.769 253.927,394.935 198.5,379C 169.868,368.697 146.701,351.197 129,326.5C 124.161,318.471 119.995,310.138 116.5,301.5C 116.34,299.847 115.674,298.514 114.5,297.5C 114.405,295.214 113.738,293.214 112.5,291.5C 111.629,288.888 110.963,286.221 110.5,283.5C 110.073,280.99 109.407,278.657 108.5,276.5C 107.053,269.922 106.387,263.255 106.5,256.5C 106.5,250.833 106.5,245.167 106.5,239.5C 110.02,200.957 126.353,169.124 155.5,144C 191.473,115.013 233.139,106.346 280.5,118C 298.113,123.638 314.113,132.138 328.5,143.5 Z"/></g>
<g><path style="opacity:0.027" fill="#fff" d="M 305.5,113.5 C 307.179,113.285 308.179,113.952 308.5,115.5C 307.29,115.068 306.29,114.401 305.5,113.5 Z"/></g>
<g><path style="opacity:0.6" fill="#fff" d="M 344.5,139.5 C 345.289,139.783 345.956,140.283 346.5,141C 345.712,144.076 345.212,147.242 345,150.5C 344.283,149.956 343.783,149.289 343.5,148.5C 344.477,145.713 344.81,142.713 344.5,139.5 Z"/></g>
<g><path style="opacity:0.004" fill="#fff" d="M 328.5,143.5 C 331.089,144.419 333.089,146.086 334.5,148.5C 331.911,147.581 329.911,145.914 328.5,143.5 Z"/></g>
<g><path style="opacity:0.004" fill="#fff" d="M 340.5,145.5 C 341.833,146.167 342.833,147.167 343.5,148.5C 341.5,148.5 340.5,147.5 340.5,145.5 Z"/></g>
<g><path style="opacity:0.004" fill="#fff" d="M 339.5,158.5 C 341.167,159.5 342.5,160.833 343.5,162.5C 342.883,162.611 342.383,162.944 342,163.5C 340.906,161.922 340.072,160.255 339.5,158.5 Z"/></g>
<g><path style="opacity:0.006" fill="#fff" d="M 108.5,199.5 C 108.88,201.698 108.213,203.365 106.5,204.5C 106.796,202.597 107.463,200.93 108.5,199.5 Z"/></g>
<g><path style="opacity:0.006" fill="#fff" d="M 106.5,205.5 C 106.741,207.898 106.074,209.898 104.5,211.5C 104.595,209.214 105.262,207.214 106.5,205.5 Z"/></g>
<g><path style="opacity:0.725" fill="#fff" d="M 198.5,210.5 C 192.167,209.167 185.833,209.167 179.5,210.5C 182.258,209.182 185.424,208.515 189,208.5C 192.576,208.515 195.742,209.182 198.5,210.5 Z"/></g>
<g><path style="opacity:1" fill="#fff" d="M 236.5,268.5 C 236.737,267.209 236.404,266.209 235.5,265.5C 232.409,241.183 241.409,223.017 262.5,211C 273.38,206.764 284.38,206.43 295.5,210C 300.128,212.295 303.795,215.629 306.5,220C 303.971,224.03 300.637,227.196 296.5,229.5C 281.732,218.79 268.899,220.79 258,235.5C 252.07,248.207 252.07,260.874 258,273.5C 263.669,279.212 270.503,281.045 278.5,279C 282.337,277.827 285.671,275.827 288.5,273C 289.833,272.333 291.167,272.333 292.5,273C 294.514,275.677 296.514,278.344 298.5,281C 293.326,288.096 286.326,292.43 277.5,294C 261.625,297.383 249.125,292.55 240,279.5C 237.924,276.107 236.758,272.44 236.5,268.5 Z"/></g>
<g><path style="opacity:1" fill="#fff" d="M 397.5,255.5 C 396.596,256.209 396.263,257.209 396.5,258.5C 394.451,270.417 388.451,279.917 378.5,287C 383.876,293.597 388.876,300.43 393.5,307.5C 388.604,309.446 383.271,310.113 377.5,309.5C 376.833,309.5 376.167,309.5 375.5,309.5C 375.027,308.094 374.027,307.427 372.5,307.5C 368.777,303.08 365.277,298.414 362,293.5C 355.916,294.642 349.749,294.809 343.5,294C 340.198,293.339 337.198,292.172 334.5,290.5C 334.027,289.094 333.027,288.427 331.5,288.5C 323.393,282.644 318.56,274.644 317,264.5C 314.025,237.258 325.192,218.758 350.5,209C 380.167,203.671 396.167,216.004 398.5,246C 398.458,249.251 398.125,252.417 397.5,255.5 Z M 353.5,222.5 C 368.844,219.847 377.844,226.18 380.5,241.5C 381.313,252.262 378.813,262.262 373,271.5C 362.739,281.923 351.739,282.923 340,274.5C 331.725,258.083 333.225,242.583 344.5,228C 347.564,226.141 350.564,224.308 353.5,222.5 Z"/></g>
<g><path style="opacity:1" fill="#fff" d="M 198.5,210.5 C 205.162,238.137 211.829,265.804 218.5,293.5C 213.52,293.234 208.354,293.567 203,294.5C 202.292,293.619 201.458,292.953 200.5,292.5C 200.073,289.99 199.407,287.657 198.5,285.5C 197.407,281.606 196.74,277.606 196.5,273.5C 186.494,273.334 176.494,273.5 166.5,274C 164.216,280.902 160.883,287.236 156.5,293C 151.177,293.499 145.844,293.666 140.5,293.5C 140.5,292.833 140.5,292.167 140.5,291.5C 153.247,264.34 166.247,237.34 179.5,210.5C 185.833,209.167 192.167,209.167 198.5,210.5 Z M 185.5,229.5 C 186.609,229.557 187.609,229.89 188.5,230.5C 188.298,232.95 188.631,235.283 189.5,237.5C 188.529,238.962 188.862,240.295 190.5,241.5C 190.575,244.206 190.908,246.873 191.5,249.5C 191.062,249.435 190.728,249.601 190.5,250C 191.066,250.995 191.733,251.828 192.5,252.5C 192.325,254.621 192.659,256.621 193.5,258.5C 192.262,258.81 192.262,259.31 193.5,260C 186.321,260.821 179.321,260.655 172.5,259.5C 176.833,249.5 181.167,239.5 185.5,229.5 Z"/></g>
<g><path style="opacity:0.016" fill="#fff" d="M 186.5,226.5 C 186.461,228.224 186.794,228.557 187.5,227.5C 188.404,228.209 188.737,229.209 188.5,230.5C 187.609,229.89 186.609,229.557 185.5,229.5C 185.263,228.209 185.596,227.209 186.5,226.5 Z"/></g>
<g><path style="opacity:0.443" fill="#fff" d="M 189.5,237.5 C 190.434,238.568 190.768,239.901 190.5,241.5C 188.862,240.295 188.529,238.962 189.5,237.5 Z"/></g>
<g><path style="opacity:0.035" fill="#fff" d="M 106.5,239.5 C 106.5,245.167 106.5,250.833 106.5,256.5C 105.421,253.383 104.754,250.05 104.5,246.5C 104.44,243.845 105.107,241.511 106.5,239.5 Z"/></g>
<g><path style="opacity:0.384" fill="#fff" d="M 191.5,249.5 C 192.404,250.209 192.737,251.209 192.5,252.5C 191.733,251.828 191.066,250.995 190.5,250C 190.728,249.601 191.062,249.435 191.5,249.5 Z"/></g>
<g><path style="opacity:0.482" fill="#fff" d="M 397.5,255.5 C 397.938,255.435 398.272,255.601 398.5,256C 397.934,256.995 397.267,257.828 396.5,258.5C 396.263,257.209 396.596,256.209 397.5,255.5 Z"/></g>
<g><path style="opacity:0.031" fill="#fff" d="M 193.5,258.5 C 194.404,259.209 194.737,260.209 194.5,261.5C 186.804,261.831 179.138,261.497 171.5,260.5C 171.624,259.893 171.957,259.56 172.5,259.5C 179.321,260.655 186.321,260.821 193.5,260C 192.262,259.31 192.262,258.81 193.5,258.5 Z"/></g>
<g><path style="opacity:0.475" fill="#fff" d="M 235.5,265.5 C 236.404,266.209 236.737,267.209 236.5,268.5C 235.733,267.828 235.066,266.995 234.5,266C 234.728,265.601 235.062,265.435 235.5,265.5 Z"/></g>
<g><path style="opacity:0.243" fill="#fff" d="M 93.5,264.5 C 94.4511,265.919 94.7845,267.585 94.5,269.5C 92.6275,268.104 92.2942,266.437 93.5,264.5 Z"/></g>
<g><path style="opacity:0.565" fill="#fff" d="M 95.5,277.5 C 96.4345,278.568 96.7678,279.901 96.5,281.5C 94.8906,280.335 94.5573,279.001 95.5,277.5 Z"/></g>
<g><path style="opacity:0.018" fill="#fff" d="M 108.5,276.5 C 109.407,278.657 110.073,280.99 110.5,283.5C 109.883,283.389 109.383,283.056 109,282.5C 108.505,280.527 108.338,278.527 108.5,276.5 Z"/></g>
<g><path style="opacity:0.012" fill="#fff" d="M 198.5,285.5 C 199.407,287.657 200.073,289.99 200.5,292.5C 199.883,292.389 199.383,292.056 199,291.5C 198.505,289.527 198.338,287.527 198.5,285.5 Z"/></g>
<g><path style="opacity:0.306" fill="#fff" d="M 331.5,288.5 C 333.027,288.427 334.027,289.094 334.5,290.5C 332.973,290.573 331.973,289.906 331.5,288.5 Z"/></g>
<g><path style="opacity:0.017" fill="#fff" d="M 112.5,291.5 C 113.738,293.214 114.405,295.214 114.5,297.5C 112.926,295.898 112.259,293.898 112.5,291.5 Z"/></g>
<g><path style="opacity:0.498" fill="#fff" d="M 140.5,291.5 C 140.5,292.167 140.5,292.833 140.5,293.5C 139.922,294.547 139.256,294.38 138.5,293C 139.044,292.283 139.711,291.783 140.5,291.5 Z"/></g>
<g><path style="opacity:0.02" fill="#fff" d="M 114.5,297.5 C 115.674,298.514 116.34,299.847 116.5,301.5C 114.896,300.713 114.229,299.38 114.5,297.5 Z"/></g>
<g><path style="opacity:0.282" fill="#fff" d="M 372.5,307.5 C 374.027,307.427 375.027,308.094 375.5,309.5C 373.973,309.573 372.973,308.906 372.5,307.5 Z"/></g>
<g><path style="opacity:0.342" fill="#fff" d="M 393.5,307.5 C 395.739,309.001 395.739,310.334 393.5,311.5C 388.035,310.876 382.702,310.21 377.5,309.5C 383.271,310.113 388.604,309.446 393.5,307.5 Z"/></g>
<g><path style="opacity:0.886" fill="#fff" d="M 344.5,359.5 C 344.664,356.813 344.497,354.146 344,351.5C 342.549,353.464 340.716,354.797 338.5,355.5C 345.402,346.134 347.402,347.467 344.5,359.5 Z"/></g>
<g><path style="opacity:0.082" fill="#fff" d="M 269.5,396.5 C 268.469,397.249 267.302,397.915 266,398.5C 265.601,398.272 265.435,397.938 265.5,397.5C 266.568,396.566 267.901,396.232 269.5,396.5 Z"/></g>
<g><path style="opacity:0.404" fill="#fff" d="M 263.5,397.5 C 261.863,398.38 260.03,399.046 258,399.5C 257.235,399.43 256.735,399.097 256.5,398.5C 258.607,397.532 260.941,397.198 263.5,397.5 Z"/></g>
</svg>
