<?xml version="1.0" encoding="UTF-8"?>
<!DOCTYPE svg PUBLIC "-//W3C//DTD SVG 1.1//EN" "http://www.w3.org/Graphics/SVG/1.1/DTD/svg11.dtd">
<svg xmlns="http://www.w3.org/2000/svg" version="1.1" width="500px" height="500px" style="shape-rendering:geometricPrecision; text-rendering:geometricPrecision; image-rendering:optimizeQuality; fill-rule:evenodd; clip-rule:evenodd" xmlns:xlink="http://www.w3.org/1999/xlink">
<g><path style="opacity:0.999" fill="#fff" d="M 166.5,214.5 C 166.5,213.833 166.167,213.5 165.5,213.5C 165.5,212.833 165.167,212.5 164.5,212.5C 163.415,210.413 161.749,209.08 159.5,208.5C 159.5,207.833 159.167,207.5 158.5,207.5C 158.5,206.833 158.167,206.5 157.5,206.5C 155.371,204.05 152.704,202.383 149.5,201.5C 139.903,195.077 129.236,191.411 117.5,190.5C 116.432,189.566 115.099,189.232 113.5,189.5C 110.5,189.5 107.5,189.5 104.5,189.5C 102.585,189.216 100.919,189.549 99.5,190.5C 91.9981,191.122 84.9981,193.122 78.5,196.5C 49.6959,208.736 32.8626,230.402 28,261.5C 25.5455,300.103 41.3788,328.27 75.5,346C 100.778,355.736 125.445,354.402 149.5,342C 153.3,340.021 156.634,337.521 159.5,334.5C 162.109,333.557 164.109,331.89 165.5,329.5C 166.167,329.5 166.5,329.167 166.5,328.5C 167.117,328.389 167.617,328.056 168,327.5C 168.667,329.5 168.667,331.5 168,333.5C 148.712,351.264 125.879,359.097 99.5,357C 57.6838,350.184 32.5172,326.017 24,284.5C 20.1897,240.261 38.3564,209.094 78.5,191C 111.559,180.112 141.226,185.945 167.5,208.5C 168.647,210.765 168.814,213.098 168,215.5C 167.617,214.944 167.117,214.611 166.5,214.5 Z M 99.5,190.5 C 100.043,190.56 100.376,190.893 100.5,191.5C 98.6404,192.325 96.9738,193.325 95.5,194.5C 94.5,194.5 93.5,194.5 92.5,194.5C 91.3991,193.402 90.0657,193.235 88.5,194C 89.056,194.383 89.3893,194.883 89.5,195.5C 88.1667,195.833 86.8333,196.167 85.5,196.5C 83.302,195.933 80.9686,195.933 78.5,196.5C 84.9981,193.122 91.9981,191.122 99.5,190.5 Z M 104.5,189.5 C 107.5,189.5 110.5,189.5 113.5,189.5C 113.918,190.222 114.584,190.722 115.5,191C 113.667,191.167 111.833,191.333 110,191.5C 107.705,191.453 105.871,190.787 104.5,189.5 Z M 117.5,190.5 C 129.236,191.411 139.903,195.077 149.5,201.5C 148.5,201.5 147.5,201.5 146.5,201.5C 146.5,200.833 146.167,200.5 145.5,200.5C 144.791,199.596 143.791,199.263 142.5,199.5C 141.652,198.375 140.652,198.375 139.5,199.5C 138.29,199.068 137.29,198.401 136.5,197.5C 135.5,197.5 134.5,197.5 133.5,197.5C 136.258,196.033 135.925,195.367 132.5,195.5C 131.833,194.167 131.167,194.167 130.5,195.5C 127.193,194.949 123.86,194.616 120.5,194.5C 119.147,193.474 118.147,192.141 117.5,190.5 Z M 149.5,201.5 C 152.704,202.383 155.371,204.05 157.5,206.5C 156.167,206.167 154.833,205.833 153.5,205.5C 153.027,204.094 152.027,203.427 150.5,203.5C 150.167,202.833 149.833,202.167 149.5,201.5 Z M 159.5,208.5 C 161.749,209.08 163.415,210.413 164.5,212.5C 162.251,211.92 160.585,210.587 159.5,208.5 Z M 163.5,328.5 C 163.5,328.833 163.5,329.167 163.5,329.5C 162.833,329.5 162.5,329.833 162.5,330.5C 161.833,330.5 161.167,330.5 160.5,330.5C 160.973,329.094 161.973,328.427 163.5,328.5 Z M 56.5,329.5 C 57.5,329.833 58.1667,330.5 58.5,331.5C 57.8333,331.5 57.1667,331.5 56.5,331.5C 56.5,330.833 56.5,330.167 56.5,329.5 Z M 163.5,329.5 C 164.167,329.5 164.833,329.5 165.5,329.5C 164.109,331.89 162.109,333.557 159.5,334.5C 159.5,333.833 159.5,333.167 159.5,332.5C 160.71,332.068 161.71,331.401 162.5,330.5C 163.167,330.5 163.5,330.167 163.5,329.5 Z"/></g>
<g><path style="opacity:0.023" fill="#fff" d="M 99.5,190.5 C 100.919,189.549 102.585,189.216 104.5,189.5C 105.871,190.787 107.705,191.453 110,191.5C 111.833,191.333 113.667,191.167 115.5,191C 114.584,190.722 113.918,190.222 113.5,189.5C 115.099,189.232 116.432,189.566 117.5,190.5C 118.147,192.141 119.147,193.474 120.5,194.5C 112.167,193.167 103.833,193.167 95.5,194.5C 96.9738,193.325 98.6404,192.325 100.5,191.5C 100.376,190.893 100.043,190.56 99.5,190.5 Z M 104.5,189.5 C 107.5,189.5 110.5,189.5 113.5,189.5C 113.918,190.222 114.584,190.722 115.5,191C 113.667,191.167 111.833,191.333 110,191.5C 107.705,191.453 105.871,190.787 104.5,189.5 Z"/></g>
<g><path style="opacity:0.014" fill="#fff" d="M 92.5,194.5 C 91.791,195.404 90.791,195.737 89.5,195.5C 89.3893,194.883 89.056,194.383 88.5,194C 90.0657,193.235 91.3991,193.402 92.5,194.5 Z"/></g>
<g><path style="opacity:0.015" fill="#fff" d="M 85.5,196.5 C 84.3285,197.345 82.9952,198.011 81.5,198.5C 81.1667,197.167 80.8333,197.167 80.5,198.5C 80.1583,199.338 79.4916,199.672 78.5,199.5C 77.1667,198.5 77.1667,197.5 78.5,196.5C 80.9686,195.933 83.302,195.933 85.5,196.5 Z"/></g>
<g><path style="opacity:0.013" fill="#fff" d="M 132.5,195.5 C 135.925,195.367 136.258,196.033 133.5,197.5C 132.833,197.5 132.5,197.167 132.5,196.5C 132.5,196.167 132.5,195.833 132.5,195.5 Z"/></g>
<g><path style="opacity:0.039" fill="#fff" d="M 142.5,199.5 C 141.833,199.5 141.5,199.833 141.5,200.5C 140.508,200.672 139.842,200.338 139.5,199.5C 140.652,198.375 141.652,198.375 142.5,199.5 Z"/></g>
<g><path style="opacity:0.014" fill="#fff" d="M 142.5,199.5 C 143.791,199.263 144.791,199.596 145.5,200.5C 144.508,200.328 143.842,200.662 143.5,201.5C 142.833,201.5 142.5,201.167 142.5,200.5C 142.5,200.167 142.5,199.833 142.5,199.5 Z"/></g>
<g><path style="opacity:0.015" fill="#fff" d="M 146.5,201.5 C 147.5,201.5 148.5,201.5 149.5,201.5C 149.833,202.167 150.167,202.833 150.5,203.5C 149.833,203.5 149.167,203.5 148.5,203.5C 148.167,202.167 147.833,202.167 147.5,203.5C 146.833,203.5 146.5,203.167 146.5,202.5C 146.5,202.167 146.5,201.833 146.5,201.5 Z"/></g>
<g><path style="opacity:0.012" fill="#fff" d="M 150.5,204.5 C 150.5,204.167 150.5,203.833 150.5,203.5C 152.027,203.427 153.027,204.094 153.5,205.5C 152.833,205.5 152.5,205.833 152.5,206.5C 151.833,206.5 151.5,206.167 151.5,205.5C 151.5,204.833 151.167,204.5 150.5,204.5 Z"/></g>
<g><path style="opacity:0.021" fill="#fff" d="M 153.5,206.5 C 153.5,206.167 153.5,205.833 153.5,205.5C 154.833,205.833 156.167,206.167 157.5,206.5C 158.167,206.5 158.5,206.833 158.5,207.5C 159.167,207.5 159.5,207.833 159.5,208.5C 160.585,210.587 162.251,211.92 164.5,212.5C 165.167,212.5 165.5,212.833 165.5,213.5C 166.167,213.5 166.5,213.833 166.5,214.5C 166.672,215.492 166.338,216.158 165.5,216.5C 165.5,215.833 165.167,215.5 164.5,215.5C 164.167,214.167 163.833,214.167 163.5,215.5C 161.833,214.5 160.5,213.167 159.5,211.5C 159.5,210.833 159.167,210.5 158.5,210.5C 158.5,209.833 158.167,209.5 157.5,209.5C 157.167,208.167 156.833,208.167 156.5,209.5C 155.5,209.167 154.833,208.5 154.5,207.5C 154.5,206.833 154.167,206.5 153.5,206.5 Z"/></g>
<g><path style="opacity:0.02" fill="#fff" d="M 63.5,207.5 C 63.1667,208.5 62.5,209.167 61.5,209.5C 60.5,207.167 61.1667,206.5 63.5,207.5 Z"/></g>
<g><path style="opacity:0.015" fill="#fff" d="M 59.5,210.5 C 58.5,212.167 57.1667,213.5 55.5,214.5C 54.6832,212.692 55.3498,211.192 57.5,210C 58.4368,209.308 59.1034,209.475 59.5,210.5 Z"/></g>
<g><path style="opacity:0.013" fill="#fff" d="M 53.5,216.5 C 52.8333,217.833 51.8333,218.833 50.5,219.5C 49.488,217.9 49.988,216.566 52,215.5C 52.3826,216.056 52.8826,216.389 53.5,216.5 Z"/></g>
<g><path style="opacity:0.896" fill="#fff" d="M 120.5,194.5 C 123.86,194.616 127.193,194.949 130.5,195.5C 130.842,196.338 131.508,196.672 132.5,196.5C 132.5,197.167 132.833,197.5 133.5,197.5C 134.5,197.5 135.5,197.5 136.5,197.5C 137.29,198.401 138.29,199.068 139.5,199.5C 139.842,200.338 140.508,200.672 141.5,200.5C 141.833,200.5 142.167,200.5 142.5,200.5C 142.5,201.167 142.833,201.5 143.5,201.5C 144.609,201.557 145.609,201.89 146.5,202.5C 146.5,203.167 146.833,203.5 147.5,203.5C 147.833,203.5 148.167,203.5 148.5,203.5C 148.842,204.338 149.508,204.672 150.5,204.5C 151.167,204.5 151.5,204.833 151.5,205.5C 151.5,206.167 151.833,206.5 152.5,206.5C 152.833,206.5 153.167,206.5 153.5,206.5C 154.167,206.5 154.5,206.833 154.5,207.5C 154.833,208.5 155.5,209.167 156.5,209.5C 156.833,209.5 157.167,209.5 157.5,209.5C 158.167,209.5 158.5,209.833 158.5,210.5C 159.167,210.5 159.5,210.833 159.5,211.5C 160.5,213.167 161.833,214.5 163.5,215.5C 163.833,215.5 164.167,215.5 164.5,215.5C 165.167,215.5 165.5,215.833 165.5,216.5C 167.174,218.624 168.007,220.958 168,223.5C 143.815,196.86 114.649,189.36 80.5,201C 47.5366,216.753 31.8699,242.92 33.5,279.5C 32.8333,273.833 32.1667,268.167 31.5,262.5C 33.2266,246.054 39.56,231.721 50.5,219.5C 51.8333,218.833 52.8333,217.833 53.5,216.5C 53.8333,215.5 54.5,214.833 55.5,214.5C 57.1667,213.5 58.5,212.167 59.5,210.5C 60.1667,210.167 60.8333,209.833 61.5,209.5C 62.5,209.167 63.1667,208.5 63.5,207.5C 66.5046,206.087 69.0046,204.087 71,201.5C 71.3333,201.833 71.6667,202.167 72,202.5C 73.9935,201.086 76.1602,200.086 78.5,199.5C 79.4916,199.672 80.1583,199.338 80.5,198.5C 80.8333,198.5 81.1667,198.5 81.5,198.5C 82.9952,198.011 84.3285,197.345 85.5,196.5C 86.8333,196.167 88.1667,195.833 89.5,195.5C 90.791,195.737 91.791,195.404 92.5,194.5C 93.5,194.5 94.5,194.5 95.5,194.5C 103.833,193.167 112.167,193.167 120.5,194.5 Z"/></g>
<g><path style="opacity:0.672" fill="#fff" d="M 120.5,239.5 C 116.5,239.5 112.5,239.5 108.5,239.5C 108.737,240.791 108.404,241.791 107.5,242.5C 107.5,241.167 107.5,239.833 107.5,238.5C 112.032,238.182 116.366,238.515 120.5,239.5 Z"/></g>
<g><path style="opacity:0.671" fill="#fff" d="M 248.5,239.5 C 253.975,238.511 259.642,238.178 265.5,238.5C 265.737,239.791 265.404,240.791 264.5,241.5C 259.604,239.554 254.271,238.887 248.5,239.5 Z"/></g>
<g><path style="opacity:0.998" fill="#fff" d="M 342.5,238.5 C 356.317,237.488 361.817,243.821 359,257.5C 354.975,266.763 348.142,269.93 338.5,267C 331.957,260.818 330.79,253.652 335,245.5C 337.015,242.588 339.515,240.255 342.5,238.5 Z M 343.5,242.5 C 350.911,240.907 354.911,243.907 355.5,251.5C 355.093,258.4 351.593,262.734 345,264.5C 339.364,263.573 336.864,260.24 337.5,254.5C 337.411,249.344 339.411,245.344 343.5,242.5 Z"/></g>
<g><path style="opacity:0.998" fill="#fff" d="M 388.5,238.5 C 391.85,238.335 395.183,238.502 398.5,239C 402.62,240.33 403.12,242.163 400,244.5C 390.964,240.185 385.298,242.852 383,252.5C 381.802,258.581 384.135,262.581 390,264.5C 393.147,263.338 396.314,262.338 399.5,261.5C 399.703,263.39 399.037,264.89 397.5,266C 389.855,270.313 383.689,268.813 379,261.5C 376.182,251.158 379.349,243.491 388.5,238.5 Z"/></g>
<g><path style="opacity:0.998" fill="#fff" d="M 86.5,238.5 C 88.7659,238.141 90.5993,238.808 92,240.5C 94.1054,249.197 96.2721,257.864 98.5,266.5C 96.9547,267.452 95.288,267.785 93.5,267.5C 93.0074,265.194 92.6741,262.861 92.5,260.5C 88.4454,260.176 84.4454,260.509 80.5,261.5C 79.627,263.413 78.627,265.247 77.5,267C 75.8333,267.667 74.1667,267.667 72.5,267C 77.5778,257.678 82.2445,248.178 86.5,238.5 Z M 87.5,245.5 C 88.1667,245.833 88.8333,246.167 89.5,246.5C 89.366,248.292 89.6993,249.958 90.5,251.5C 89.1472,253.128 89.4805,254.462 91.5,255.5C 88.6965,256.638 85.6965,256.805 82.5,256C 84.5631,252.707 86.2297,249.207 87.5,245.5 Z"/></g>
<g><path style="opacity:0.998" fill="#fff" d="M 120.5,239.5 C 122.371,239.859 123.871,240.859 125,242.5C 126.974,250.234 124.141,254.901 116.5,256.5C 114.167,256.5 111.833,256.5 109.5,256.5C 109.5,257.833 109.5,259.167 109.5,260.5C 109.5,262.833 109.5,265.167 109.5,267.5C 107.833,267.5 106.167,267.5 104.5,267.5C 105.582,259.178 106.582,250.845 107.5,242.5C 108.404,241.791 108.737,240.791 108.5,239.5C 112.5,239.5 116.5,239.5 120.5,239.5 Z M 118.5,242.5 C 122.388,250.478 119.722,253.978 110.5,253C 111.444,250.281 111.777,247.448 111.5,244.5C 113.456,242.852 115.789,242.185 118.5,242.5 Z"/></g>
<g><path style="opacity:0.998" fill="#fff" d="M 133.5,238.5 C 137.846,238.334 142.179,238.501 146.5,239C 149.366,240.393 150.699,242.726 150.5,246C 150.404,250.76 148.071,253.76 143.5,255C 146.086,258.836 148.419,262.836 150.5,267C 148.421,267.808 146.421,267.641 144.5,266.5C 138.773,251.59 135.439,251.923 134.5,267.5C 133.167,267.5 131.833,267.5 130.5,267.5C 131.254,257.805 132.254,248.138 133.5,238.5 Z M 137.5,242.5 C 140.119,242.232 142.619,242.565 145,243.5C 146.822,248.723 144.822,251.723 139,252.5C 138.167,252.167 137.333,251.833 136.5,251.5C 137.096,248.828 137.43,245.828 137.5,242.5 Z"/></g>
<g><path style="opacity:0.997" fill="#fff" d="M 176.5,238.5 C 176.5,239.5 176.5,240.5 176.5,241.5C 172.298,241.183 168.298,241.517 164.5,242.5C 164.037,245.482 163.704,248.482 163.5,251.5C 166.833,251.5 170.167,251.5 173.5,251.5C 173.5,252.5 173.5,253.5 173.5,254.5C 169.833,254.5 166.167,254.5 162.5,254.5C 162.5,256.5 162.5,258.5 162.5,260.5C 161.566,261.568 161.232,262.901 161.5,264.5C 164.167,264.5 166.833,264.5 169.5,264.5C 172.861,262.516 174.528,263.516 174.5,267.5C 168.463,267.829 162.463,267.496 156.5,266.5C 157.915,257.511 159.249,248.511 160.5,239.5C 165.792,238.505 171.125,238.172 176.5,238.5 Z"/></g>
<g><path style="opacity:0.998" fill="#fff" d="M 197.5,254.5 C 197.427,256.027 198.094,257.027 199.5,257.5C 199.5,257.833 199.5,258.167 199.5,258.5C 199.783,259.289 200.283,259.956 201,260.5C 201.494,258.866 201.66,257.199 201.5,255.5C 201.752,250.481 202.252,245.481 203,240.5C 204.049,238.893 205.549,238.227 207.5,238.5C 206.492,248.084 205.158,257.584 203.5,267C 202.056,267.781 200.723,267.614 199.5,266.5C 195.886,260.271 192.553,253.938 189.5,247.5C 189.217,246.711 188.717,246.044 188,245.5C 187.51,246.793 187.343,248.127 187.5,249.5C 187.184,254.844 186.684,260.178 186,265.5C 184.951,267.107 183.451,267.773 181.5,267.5C 182.911,257.879 183.911,248.212 184.5,238.5C 186.722,238.178 188.556,238.845 190,240.5C 192.73,245.058 195.23,249.725 197.5,254.5 Z"/></g>
<g><path style="opacity:0.997" fill="#fff" d="M 216.5,238.5 C 235.66,235.811 242.16,243.478 236,261.5C 234.062,264.106 231.562,265.939 228.5,267C 223.511,267.499 218.511,267.666 213.5,267.5C 214.254,257.805 215.254,248.138 216.5,238.5 Z M 220.5,242.5 C 232.214,241.273 236.381,246.273 233,257.5C 229.803,262.933 224.97,265.266 218.5,264.5C 219.002,257.151 219.669,249.817 220.5,242.5 Z"/></g>
<g><path style="opacity:0.997" fill="#fff" d="M 248.5,239.5 C 254.271,238.887 259.604,239.554 264.5,241.5C 260.167,241.5 255.833,241.5 251.5,241.5C 251.5,242.5 251.5,243.5 251.5,244.5C 251.5,246.833 251.5,249.167 251.5,251.5C 254.777,251.784 257.943,251.451 261,250.5C 261.684,251.784 261.517,252.951 260.5,254C 257.183,254.498 253.85,254.665 250.5,254.5C 250.5,255.833 250.5,257.167 250.5,258.5C 249.539,260.265 249.205,262.265 249.5,264.5C 253.5,264.5 257.5,264.5 261.5,264.5C 262.55,264.905 262.55,265.571 261.5,266.5C 255.872,267.495 250.206,267.829 244.5,267.5C 245.52,257.988 246.853,248.654 248.5,239.5 Z"/></g>
<g><path style="opacity:0.998" fill="#fff" d="M 285.5,255.5 C 285.932,256.71 286.599,257.71 287.5,258.5C 287.369,259.376 287.702,260.043 288.5,260.5C 289.48,257.914 289.813,255.247 289.5,252.5C 289.998,247.848 290.331,243.181 290.5,238.5C 292.288,238.215 293.955,238.548 295.5,239.5C 294.331,248.528 292.998,257.528 291.5,266.5C 290.167,267.833 288.833,267.833 287.5,266.5C 284.252,260.336 280.752,254.336 277,248.5C 275.101,254.683 273.935,261.016 273.5,267.5C 272.167,267.5 270.833,267.5 269.5,267.5C 270.573,257.841 271.573,248.175 272.5,238.5C 274.144,238.286 275.644,238.62 277,239.5C 280.113,244.729 282.947,250.062 285.5,255.5 Z"/></g>
<g><path style="opacity:0.997" fill="#fff" d="M 304.5,238.5 C 310.262,238.149 315.928,238.649 321.5,240C 329.565,248.546 329.231,256.879 320.5,265C 319.167,265.667 317.833,266.333 316.5,267C 311.511,267.499 306.511,267.666 301.5,267.5C 302.254,257.805 303.254,248.138 304.5,238.5 Z M 308.5,242.5 C 320.214,241.273 324.381,246.273 321,257.5C 317.803,262.933 312.97,265.266 306.5,264.5C 307.002,257.151 307.669,249.817 308.5,242.5 Z"/></g>
<g><path style="opacity:0.998" fill="#fff" d="M 416.5,238.5 C 432.868,238.536 437.701,246.203 431,261.5C 422.353,271.062 414.353,270.729 407,260.5C 405.03,250.788 408.196,243.455 416.5,238.5 Z M 417.5,242.5 C 424.992,241.058 428.658,244.058 428.5,251.5C 428.911,258.752 425.577,263.085 418.5,264.5C 413.225,263.297 410.892,259.964 411.5,254.5C 411.411,249.344 413.411,245.344 417.5,242.5 Z"/></g>
<g><path style="opacity:0.998" fill="#fff" d="M 451.5,250.5 C 451.66,252.153 452.326,253.486 453.5,254.5C 454.268,255.263 454.768,256.263 455,257.5C 455.399,257.272 455.565,256.938 455.5,256.5C 456.906,256.027 457.573,255.027 457.5,253.5C 460.505,248.982 463.338,244.316 466,239.5C 467.699,238.594 469.533,238.261 471.5,238.5C 470.298,247.482 469.131,256.482 468,265.5C 466.951,267.107 465.451,267.773 463.5,267.5C 464.239,262.18 464.906,256.846 465.5,251.5C 466.404,250.791 466.737,249.791 466.5,248.5C 466.167,245.833 465.833,245.833 465.5,248.5C 464.662,248.842 464.328,249.508 464.5,250.5C 463.5,250.833 462.833,251.5 462.5,252.5C 461.833,252.5 461.5,252.833 461.5,253.5C 460.146,257.55 457.812,260.883 454.5,263.5C 453.558,263.392 452.725,263.059 452,262.5C 450,257.167 448,251.833 446,246.5C 445.51,247.793 445.343,249.127 445.5,250.5C 444.527,252.948 444.194,255.615 444.5,258.5C 444.296,261.518 443.963,264.518 443.5,267.5C 442.167,267.5 440.833,267.5 439.5,267.5C 440.427,257.824 441.427,248.158 442.5,238.5C 444.288,238.215 445.955,238.548 447.5,239.5C 449.238,243.049 450.571,246.716 451.5,250.5 Z"/></g>
<g><path style="opacity:0.217" fill="#fff" d="M 118.5,242.5 C 115.789,242.185 113.456,242.852 111.5,244.5C 111.5,243.5 111.5,242.5 111.5,241.5C 114.059,241.198 116.393,241.532 118.5,242.5 Z"/></g>
<g><path style="opacity:0.333" fill="#fff" d="M 176.5,238.5 C 177.434,239.568 177.768,240.901 177.5,242.5C 173.167,242.5 168.833,242.5 164.5,242.5C 168.298,241.517 172.298,241.183 176.5,241.5C 176.5,240.5 176.5,239.5 176.5,238.5 Z"/></g>
<g><path style="opacity:0.329" fill="#fff" d="M 264.5,241.5 C 260.05,241.964 255.717,242.964 251.5,244.5C 251.5,243.5 251.5,242.5 251.5,241.5C 255.833,241.5 260.167,241.5 264.5,241.5 Z"/></g>
<g><path style="opacity:0.251" fill="#fff" d="M 89.5,246.5 C 88.8333,246.167 88.1667,245.833 87.5,245.5C 88.9794,241.53 89.6461,241.863 89.5,246.5 Z"/></g>
<g><path style="opacity:0.008" fill="#fff" d="M 189.5,247.5 C 188.833,248.167 188.167,248.833 187.5,249.5C 187.343,248.127 187.51,246.793 188,245.5C 188.717,246.044 189.217,246.711 189.5,247.5 Z"/></g>
<g><path style="opacity:0.361" fill="#fff" d="M 465.5,248.5 C 465.833,248.5 466.167,248.5 466.5,248.5C 466.737,249.791 466.404,250.791 465.5,251.5C 464.833,251.5 464.5,251.167 464.5,250.5C 465.338,250.158 465.672,249.492 465.5,248.5 Z"/></g>
<g><path style="opacity:0.015" fill="#fff" d="M 289.5,252.5 C 289.813,255.247 289.48,257.914 288.5,260.5C 287.702,260.043 287.369,259.376 287.5,258.5C 286.599,257.71 285.932,256.71 285.5,255.5C 286.833,254.5 288.167,253.5 289.5,252.5 Z"/></g>
<g><path style="opacity:0.035" fill="#fff" d="M 451.5,250.5 C 453.104,251.287 453.771,252.62 453.5,254.5C 452.326,253.486 451.66,252.153 451.5,250.5 Z"/></g>
<g><path style="opacity:0.006" fill="#fff" d="M 461.5,253.5 C 461.5,252.833 461.833,252.5 462.5,252.5C 463.742,254.346 463.409,254.679 461.5,253.5 Z"/></g>
<g><path style="opacity:0.071" fill="#fff" d="M 90.5,251.5 C 90.8333,252.833 91.1667,254.167 91.5,255.5C 89.4805,254.462 89.1472,253.128 90.5,251.5 Z"/></g>
<g><path style="opacity:0.016" fill="#fff" d="M 445.5,250.5 C 446.097,250.735 446.43,251.235 446.5,252C 446.01,254.346 445.343,256.513 444.5,258.5C 444.194,255.615 444.527,252.948 445.5,250.5 Z"/></g>
<g><path style="opacity:0.141" fill="#fff" d="M 457.5,253.5 C 457.573,255.027 456.906,256.027 455.5,256.5C 455.427,254.973 456.094,253.973 457.5,253.5 Z"/></g>
<g><path style="opacity:0.218" fill="#fff" d="M 116.5,256.5 C 114.735,257.461 112.735,257.795 110.5,257.5C 110.737,258.791 110.404,259.791 109.5,260.5C 109.5,259.167 109.5,257.833 109.5,256.5C 111.833,256.5 114.167,256.5 116.5,256.5 Z"/></g>
<g><path style="opacity:0.282" fill="#fff" d="M 197.5,254.5 C 198.708,255.234 200.041,255.567 201.5,255.5C 201.66,257.199 201.494,258.866 201,260.5C 200.283,259.956 199.783,259.289 199.5,258.5C 200.644,257.151 200.644,256.817 199.5,257.5C 198.094,257.027 197.427,256.027 197.5,254.5 Z"/></g>
<g><path style="opacity:0.017" fill="#fff" d="M 162.5,260.5 C 162.5,261.5 162.5,262.5 162.5,263.5C 165.059,263.198 167.393,263.532 169.5,264.5C 166.833,264.5 164.167,264.5 161.5,264.5C 161.232,262.901 161.566,261.568 162.5,260.5 Z"/></g>
<g><path style="opacity:0.017" fill="#fff" d="M 250.5,258.5 C 250.5,260.167 250.5,261.833 250.5,263.5C 254.371,263.185 258.038,263.518 261.5,264.5C 257.5,264.5 253.5,264.5 249.5,264.5C 249.205,262.265 249.539,260.265 250.5,258.5 Z"/></g>
<g><path style="opacity:0.341" fill="#fff" d="M 228.5,271.5 C 227.5,271.5 226.5,271.5 225.5,271.5C 224.15,270.35 224.316,269.683 226,269.5C 227.301,269.639 228.134,270.305 228.5,271.5 Z"/></g>
<g><path style="opacity:0.259" fill="#fff" d="M 232.5,271.5 C 233.209,270.596 234.209,270.263 235.5,270.5C 235.737,271.791 235.404,272.791 234.5,273.5C 234.5,272.167 233.833,271.5 232.5,271.5 Z"/></g>
<g><path style="opacity:0.995" fill="#fff" d="M 225.5,271.5 C 226.5,271.5 227.5,271.5 228.5,271.5C 230.035,272.354 231.368,272.354 232.5,271.5C 233.833,271.5 234.5,272.167 234.5,273.5C 233.215,275.659 231.548,276.326 229.5,275.5C 227.998,272.978 226.665,272.978 225.5,275.5C 224.504,275.414 223.671,275.748 223,276.5C 222.259,273.981 223.092,272.315 225.5,271.5 Z"/></g>
<g><path style="opacity:0.017" fill="#fff" d="M 229.5,275.5 C 227.965,276.354 226.632,276.354 225.5,275.5C 226.665,272.978 227.998,272.978 229.5,275.5 Z"/></g>
<g><path style="opacity:0.678" fill="#fff" d="M 143.5,278.5 C 148.975,277.511 154.642,277.178 160.5,277.5C 160.737,278.791 160.404,279.791 159.5,280.5C 154.604,278.554 149.271,277.887 143.5,278.5 Z"/></g>
<g><path style="opacity:0.678" fill="#fff" d="M 209.5,279.5 C 202.989,278.182 196.322,278.182 189.5,279.5C 192.086,280.48 194.753,280.813 197.5,280.5C 197.737,281.791 197.404,282.791 196.5,283.5C 194.365,281.631 191.698,280.964 188.5,281.5C 188.5,280.167 188.5,278.833 188.5,277.5C 195.863,277.169 203.197,277.503 210.5,278.5C 210.376,279.107 210.043,279.44 209.5,279.5 Z"/></g>
<g><path style="opacity:0.686" fill="#fff" d="M 253.5,281.5 C 257.353,280.834 261.353,280.167 265.5,279.5C 260.114,278.218 254.781,278.218 249.5,279.5C 254.735,277.55 260.402,276.883 266.5,277.5C 266.5,278.833 266.5,280.167 266.5,281.5C 262.167,281.5 257.833,281.5 253.5,281.5 Z"/></g>
<g><path style="opacity:0.998" fill="#fff" d="M 86.5,277.5 C 99.2466,276.08 104.747,281.747 103,294.5C 101.974,298.722 99.8071,302.222 96.5,305C 98.0456,307.257 99.7123,309.424 101.5,311.5C 99.9255,312.631 98.2588,312.798 96.5,312C 94.7071,310.22 93.0404,308.387 91.5,306.5C 86.2398,307.915 81.7398,306.582 78,302.5C 73.7365,291.522 76.5698,283.189 86.5,277.5 Z M 87.5,281.5 C 94.7893,280.125 98.456,283.125 98.5,290.5C 98.7577,297.67 95.4243,302.004 88.5,303.5C 83.4924,302.324 80.8257,299.158 80.5,294C 80.6657,288.491 82.999,284.324 87.5,281.5 Z"/></g>
<g><path style="opacity:0.998" fill="#fff" d="M 129.5,279.5 C 131.456,277.825 132.789,278.158 133.5,280.5C 133.556,287.732 132.389,294.732 130,301.5C 123.982,308.896 117.649,309.229 111,302.5C 110.578,300.645 110.078,298.811 109.5,297C 110.537,291.204 111.37,285.371 112,279.5C 113.049,277.893 114.549,277.227 116.5,277.5C 116.122,283.691 115.455,289.858 114.5,296C 117.308,305.363 121.475,305.863 127,297.5C 127.835,291.486 128.668,285.486 129.5,279.5 Z"/></g>
<g><path style="opacity:0.557" fill="#fff" d="M 133.5,280.5 C 132.789,278.158 131.456,277.825 129.5,279.5C 130.552,277.744 132.219,277.077 134.5,277.5C 134.737,278.791 134.404,279.791 133.5,280.5 Z"/></g>
<g><path style="opacity:0.997" fill="#fff" d="M 143.5,278.5 C 149.271,277.887 154.604,278.554 159.5,280.5C 155.167,280.5 150.833,280.5 146.5,280.5C 146.5,282.167 146.5,283.833 146.5,285.5C 146.5,287.167 146.5,288.833 146.5,290.5C 149.898,290.18 153.232,290.513 156.5,291.5C 156.291,292.086 155.957,292.586 155.5,293C 152.183,293.498 148.85,293.665 145.5,293.5C 145.777,296.448 145.444,299.281 144.5,302C 148.294,303.72 152.127,303.886 156,302.5C 157.688,303.325 157.855,304.325 156.5,305.5C 150.872,306.495 145.206,306.829 139.5,306.5C 140.479,296.982 141.813,287.648 143.5,278.5 Z"/></g>
<g><path style="opacity:0.998" fill="#fff" d="M 171.5,277.5 C 174.187,277.336 176.854,277.503 179.5,278C 182.922,279.406 183.255,281.239 180.5,283.5C 177.297,280.878 174.13,280.878 171,283.5C 170.333,284.833 170.333,286.167 171,287.5C 173.754,289.127 176.588,290.627 179.5,292C 183.082,300.549 180.249,305.716 171,307.5C 167.445,307.318 164.612,305.818 162.5,303C 162.998,301.842 163.831,301.009 165,300.5C 166.961,301.897 169.128,302.897 171.5,303.5C 175.836,302.499 177.336,299.832 176,295.5C 164.061,291.749 162.561,285.749 171.5,277.5 Z"/></g>
<g><path style="opacity:0.999" fill="#fff" d="M 209.5,279.5 C 209.5,279.833 209.5,280.167 209.5,280.5C 206.5,280.5 203.5,280.5 200.5,280.5C 200.5,281.833 200.5,283.167 200.5,284.5C 199.998,291.849 199.331,299.183 198.5,306.5C 196.856,306.286 195.356,306.62 194,307.5C 194.336,299.475 195.169,291.475 196.5,283.5C 197.404,282.791 197.737,281.791 197.5,280.5C 194.753,280.813 192.086,280.48 189.5,279.5C 196.322,278.182 202.989,278.182 209.5,279.5 Z"/></g>
<g><path style="opacity:0.997" fill="#fff" d="M 223.5,277.5 C 234.128,275.47 239.795,279.804 240.5,290.5C 239.997,300.5 234.83,306.167 225,307.5C 216.69,306.56 212.857,301.894 213.5,293.5C 213.302,285.885 216.635,280.551 223.5,277.5 Z M 224.5,281.5 C 231.469,280.47 235.136,283.47 235.5,290.5C 235.758,297.67 232.424,302.004 225.5,303.5C 220.258,302.255 217.591,298.922 217.5,293.5C 217.809,288.203 220.142,284.203 224.5,281.5 Z"/></g>
<g><path style="opacity:0.997" fill="#fff" d="M 253.5,281.5 C 253.777,284.448 253.444,287.281 252.5,290C 255.817,290.498 259.15,290.665 262.5,290.5C 262.5,291.5 262.5,292.5 262.5,293.5C 259.102,293.18 255.768,293.513 252.5,294.5C 251.593,297.421 251.26,300.421 251.5,303.5C 254.674,303.002 258.007,303.002 261.5,303.5C 262.404,304.209 262.737,305.209 262.5,306.5C 256.907,306.193 251.407,306.527 246,307.5C 246.907,298.174 248.074,288.841 249.5,279.5C 254.781,278.218 260.114,278.218 265.5,279.5C 261.353,280.167 257.353,280.834 253.5,281.5 Z"/></g>
<g><path style="opacity:0.997" fill="#fff" d="M 277.5,277.5 C 282.041,276.769 286.041,277.769 289.5,280.5C 288.855,281.646 288.022,282.646 287,283.5C 284.163,281.415 281.163,281.081 278,282.5C 277.333,284.167 277.333,285.833 278,287.5C 281.31,288.992 284.31,290.992 287,293.5C 289.069,302.029 285.736,306.695 277,307.5C 273.725,307.119 271.225,305.619 269.5,303C 269.667,301.5 270.5,300.667 272,300.5C 277.089,305.021 280.923,304.187 283.5,298C 282.109,295.127 279.775,293.461 276.5,293C 271.016,287.528 271.35,282.361 277.5,277.5 Z"/></g>
<g><path style="opacity:0.342" fill="#fff" d="M 159.5,280.5 C 155.702,281.483 151.702,281.817 147.5,281.5C 147.768,283.099 147.434,284.432 146.5,285.5C 146.5,283.833 146.5,282.167 146.5,280.5C 150.833,280.5 155.167,280.5 159.5,280.5 Z"/></g>
<g><path style="opacity:0.436" fill="#fff" d="M 209.5,280.5 C 207.052,281.473 204.385,281.806 201.5,281.5C 201.737,282.791 201.404,283.791 200.5,284.5C 200.5,283.167 200.5,281.833 200.5,280.5C 203.5,280.5 206.5,280.5 209.5,280.5 Z"/></g>
<g><path style="opacity:0.996" fill="#fff" d="M 31.5,262.5 C 32.1667,268.167 32.8333,273.833 33.5,279.5C 33.9629,282.482 34.2962,285.482 34.5,288.5C 34.7373,289.791 34.404,290.791 33.5,291.5C 33.5905,288.848 32.9238,286.515 31.5,284.5C 30.257,277.025 30.257,269.692 31.5,262.5 Z"/></g>
<g><path style="opacity:0.019" fill="#fff" d="M 31.5,284.5 C 32.9238,286.515 33.5905,288.848 33.5,291.5C 34.3186,293.772 34.9853,296.106 35.5,298.5C 33.716,297.426 32.5494,295.76 32,293.5C 31.502,290.518 31.3354,287.518 31.5,284.5 Z"/></g>
<g><path style="opacity:0.014" fill="#fff" d="M 35.5,298.5 C 36.5375,299.93 37.2041,301.597 37.5,303.5C 34.8501,302.543 34.1834,300.876 35.5,298.5 Z"/></g>
<g><path style="opacity:0.008" fill="#fff" d="M 160.5,302.5 C 161.833,303.167 161.833,303.167 160.5,302.5 Z"/></g>
<g><path style="opacity:0.49" fill="#fff" d="M 261.5,303.5 C 262.472,302.249 263.139,302.582 263.5,304.5C 263.457,305.416 263.124,306.083 262.5,306.5C 262.737,305.209 262.404,304.209 261.5,303.5 Z"/></g>
<g><path style="opacity:0.009" fill="#fff" d="M 38.5,305.5 C 39.3382,305.842 39.6716,306.508 39.5,307.5C 38.8333,307.5 38.5,307.833 38.5,308.5C 37.375,307.652 37.375,306.652 38.5,305.5 Z"/></g>
<g><path style="opacity:0.018" fill="#fff" d="M 44.5,316.5 C 44.5,317.167 44.8333,317.5 45.5,317.5C 46.5,317.833 47.1667,318.5 47.5,319.5C 46.8333,319.5 46.5,319.833 46.5,320.5C 44.1939,319.625 43.5272,318.292 44.5,316.5 Z"/></g>
<g><path style="opacity:0.007" fill="#fff" d="M 46.5,320.5 C 46.8333,320.5 47.1667,320.5 47.5,320.5C 47.5,321.167 47.8333,321.5 48.5,321.5C 47.6987,323.793 47.032,323.46 46.5,320.5 Z"/></g>
<g><path style="opacity:0.004" fill="#fff" d="M 166.5,325.5 C 167.833,326.167 167.833,326.167 166.5,325.5 Z"/></g>
<g><path style="opacity:0.027" fill="#fff" d="M 165.5,326.5 C 165.833,326.5 166.167,326.5 166.5,326.5C 166.5,327.167 166.5,327.833 166.5,328.5C 165.833,328.5 165.5,328.833 165.5,329.5C 164.833,329.5 164.167,329.5 163.5,329.5C 163.5,329.167 163.5,328.833 163.5,328.5C 164.167,328.5 164.5,328.167 164.5,327.5C 165.167,327.5 165.5,327.167 165.5,326.5 Z"/></g>
<g><path style="opacity:0.017" fill="#fff" d="M 55.5,328.5 C 56.1667,328.5 56.5,328.833 56.5,329.5C 56.5,330.167 56.5,330.833 56.5,331.5C 54.5188,330.895 54.1854,329.895 55.5,328.5 Z"/></g>
<g><path style="opacity:0.019" fill="#fff" d="M 56.5,331.5 C 57.1667,331.5 57.8333,331.5 58.5,331.5C 58.5,332.167 58.8333,332.5 59.5,332.5C 59.8333,333.833 60.1667,333.833 60.5,332.5C 61.5,332.833 62.1667,333.5 62.5,334.5C 62.5,335.167 62.8333,335.5 63.5,335.5C 63.5,335.833 63.5,336.167 63.5,336.5C 60.6298,335.567 58.2964,333.9 56.5,331.5 Z"/></g>
<g><path style="opacity:0.012" fill="#fff" d="M 158.5,332.5 C 158.833,332.5 159.167,332.5 159.5,332.5C 159.5,333.167 159.5,333.833 159.5,334.5C 158.508,334.672 157.842,334.338 157.5,333.5C 158.167,333.5 158.5,333.167 158.5,332.5 Z"/></g>
<g><path style="opacity:0.024" fill="#fff" d="M 64.5,335.5 C 65.1667,335.5 65.5,335.833 65.5,336.5C 65.5,337.167 65.8333,337.5 66.5,337.5C 66.5,337.833 66.5,338.167 66.5,338.5C 64.9731,338.573 63.9731,337.906 63.5,336.5C 64.1667,336.5 64.5,336.167 64.5,335.5 Z"/></g>
<g><path style="opacity:0.012" fill="#fff" d="M 153.5,335.5 C 154.895,336.648 154.728,337.648 153,338.5C 152.536,337.906 152.369,337.239 152.5,336.5C 152.5,335.833 152.833,335.5 153.5,335.5 Z"/></g>
<g><path style="opacity:0.022" fill="#fff" d="M 67.5,337.5 C 68.1667,337.5 68.5,337.833 68.5,338.5C 68.5,339.167 68.8333,339.5 69.5,339.5C 71.153,339.66 72.4863,340.326 73.5,341.5C 73.5,341.833 73.5,342.167 73.5,342.5C 70.6737,342.002 68.3403,340.669 66.5,338.5C 67.1667,338.5 67.5,338.167 67.5,337.5 Z"/></g>
<g><path style="opacity:1" fill="#fff" d="M 34.5,288.5 C 48.7531,331.215 78.4197,350.382 123.5,346C 141.175,341.913 156.009,333.08 168,319.5C 168.409,321.695 167.909,323.695 166.5,325.5C 165.833,325.5 165.5,325.833 165.5,326.5C 164.833,326.5 164.5,326.833 164.5,327.5C 163.833,327.5 163.5,327.833 163.5,328.5C 161.973,328.427 160.973,329.094 160.5,330.5C 159.5,330.833 158.833,331.5 158.5,332.5C 157.833,332.5 157.5,332.833 157.5,333.5C 156.778,333.918 156.278,334.584 156,335.5C 155.23,334.402 154.397,334.402 153.5,335.5C 152.833,335.5 152.5,335.833 152.5,336.5C 129.519,351.112 104.852,353.446 78.5,343.5C 76.533,344.684 74.8664,344.351 73.5,342.5C 74.8333,342.167 74.8333,341.833 73.5,341.5C 72.4863,340.326 71.153,339.66 69.5,339.5C 68.8333,339.5 68.5,339.167 68.5,338.5C 68.5,337.833 68.1667,337.5 67.5,337.5C 67.1667,337.5 66.8333,337.5 66.5,337.5C 65.8333,337.5 65.5,337.167 65.5,336.5C 65.5,335.833 65.1667,335.5 64.5,335.5C 64.1667,335.5 63.8333,335.5 63.5,335.5C 62.8333,335.5 62.5,335.167 62.5,334.5C 62.1667,333.5 61.5,332.833 60.5,332.5C 60.1667,332.5 59.8333,332.5 59.5,332.5C 58.8333,332.5 58.5,332.167 58.5,331.5C 58.1667,330.5 57.5,329.833 56.5,329.5C 56.5,328.833 56.1667,328.5 55.5,328.5C 52.9387,326.36 50.6054,324.027 48.5,321.5C 47.8333,321.5 47.5,321.167 47.5,320.5C 47.5,320.167 47.5,319.833 47.5,319.5C 47.1667,318.5 46.5,317.833 45.5,317.5C 44.8333,317.5 44.5,317.167 44.5,316.5C 43.928,315.027 43.0946,313.693 42,312.5C 41.6667,312.833 41.3333,313.167 41,313.5C 39.9055,311.922 39.0722,310.255 38.5,308.5C 39.1667,308.5 39.5,308.167 39.5,307.5C 39.6716,306.508 39.3382,305.842 38.5,305.5C 37.6618,305.158 37.3284,304.492 37.5,303.5C 37.2041,301.597 36.5375,299.93 35.5,298.5C 34.9853,296.106 34.3186,293.772 33.5,291.5C 34.404,290.791 34.7373,289.791 34.5,288.5 Z"/></g>
</svg>
